EMG
version=1
nRows=34
nColumns=17
inDegrees=no
endheader
time	EMG01_right_gast_med	EMG02_right_glut_max	EMG03_left_gast_med	EMG04_left_glut_max	EMG05_right_glut_med	EMG06_right_bic_fem	EMG07_right_rect_fem	EMG08_right_vast_lat	EMG09_right_vast_med	EMG10_right_tens_fasc_lat	EMG11_left_glut_med	EMG12_left_bic_fem	EMG13_left_rect_fem	EMG14_left_vast_lat	EMG15_left_vast_med	EMG16_left_tens_fasc_lat
      0.69000000	    176.00427246	    -63.77594757	     -4.94530773	    125.62302399	   -260.53546143	    -24.38522720	     -7.44853783	      0.58476114	      6.79295731	      2.13995314	     -0.93647408	     17.30614471	     -1.52625227	    -24.10258865	    -33.21473694	     28.56886101
      0.70000000	    -91.75134277	    -23.50662804	     -8.67192459	    115.02854919	   -127.15944672	     -4.72306776	      9.33866692	     24.15653992	    -67.29254150	     -0.45428964	      9.56988144	    -12.42612648	      1.45516169	    -14.00365448	    -43.32044601	     48.29859543
      0.71000000	     68.24118042	      3.65361166	     -4.19582272	    139.95021057	     36.42135239	      4.26261711	     23.23542595	     24.47824478	   -148.53955078	      2.40044975	     -4.48636580	    -24.00386047	     -2.63681269	      7.50760603	    -45.78823090	     62.00325394
      0.72000000	    -33.03932571	     17.18927956	     -0.58427805	    173.31933594	    113.97010803	     -7.43328047	    -22.97796440	    -16.85903549	    -62.56760025	    -18.37265778	    -11.60096169	      1.62786615	      0.46531606	     17.74629593	    -49.98939514	    243.43614197
      0.73000000	     45.50889587	     24.38626099	      7.85894108	    216.22381592	     62.84559250	     -9.92906380	      5.84852028	     -9.95516968	    -17.84401321	     -4.98690462	     -9.73514938	      6.71387482	     -6.36325502	     19.98118019	    -42.07734299	    379.12106323
      0.74000000	     -6.62268829	     45.03797150	     14.24810505	    175.03581238	    -27.38814545	      8.16307449	      2.33361793	     -9.07360363	     14.88172531	      1.56262124	      3.90984726	    -21.56225967	     -5.16375589	     22.44713974	    -26.95507812	     26.92597961
      0.75000000	    -11.86145401	     40.87107468	     15.38555241	     97.31988525	     14.66639519	    -18.61816597	     -4.11977434	     -7.58050060	     45.21895981	    -29.97433281	    -10.86401176	     10.29249477	     -7.91465139	     17.15914726	    -13.49024582	   -140.93107605
      0.76000000	    621.10815430	     29.02793884	     14.23427391	    -65.94573975	     10.86498356	    -30.85002518	     -7.71900177	    -14.80913639	     55.30445862	     -7.83761311	     -3.20796347	    -19.60556412	     -5.10672283	     13.65649223	     -6.43781996	   -235.50047302
      0.77000000	   -128.24099731	      8.78963661	      9.68284512	   -314.79449463	      6.83787060	    -16.57743645	      7.27270222	     -1.74585521	     16.07314873	     -4.35238361	     -0.96245193	     37.15097809	     -8.43978024	     -3.21334553	     -5.26988649	     11.79942513
      0.78000000	    -47.19856262	    -22.52236176	      7.85113430	   -365.50930786	    131.74710083	    -49.34302521	      3.52458739	     -3.84706521	    -39.28820038	      2.18752456	     -0.14521646	      5.25688076	     -7.85142422	     -1.46630478	      0.62849903	    192.13919067
      0.79000000	    -11.38305950	    -45.43294525	      4.09582806	   -212.25538635	    -44.24605179	    -38.27869415	     16.32926178	     13.07924843	    -49.30296707	     43.40227509	    -16.34696770	     -8.67757797	     -9.83897305	     -2.99684906	      2.80906725	    218.38577271
      0.80000000	     99.32798767	    -62.80877304	     15.93548393	   -129.30587769	    -37.30599213	    -33.81430817	    -16.67973328	      4.44533062	    -53.16909027	      4.91107368	      0.65144932	    -11.39895725	     -8.31940079	     -8.58533096	      8.41070366	    125.12490845
      0.81000000	    213.34817505	    -62.43728256	      4.56113625	    -58.03141785	    -79.83722687	     49.88219070	      4.42134428	     26.15327072	    -26.87110519	    -19.23522949	      0.12109208	    -18.51570892	     -8.09879684	    -15.29780960	      6.34614038	    -22.90118980
      0.82000000	    412.04019165	    -55.00699234	     -9.13720417	     -5.69478989	    -95.36090851	    -32.53422165	     15.22525120	     19.40665245	    -22.75654984	    -26.31201553	     -2.73815060	     -5.36336470	    -15.50153542	      0.83277369	      0.31977415	   -110.99856567
      0.83000000	   -264.05728149	    -38.11700821	     -8.56407261	     38.39913177	    -52.08781052	      7.21433926	    -12.01717377	    -27.06389999	     28.25877190	    -21.88832855	    -23.41576004	     25.71700287	    -13.35027122	     -4.80283403	     16.74496269	   -143.41775513
      0.84000000	     80.99882507	    -11.06121826	    -13.50737000	     68.29595947	    -25.02974129	    -14.81215096	     -0.13403398	    -20.14748573	     32.55612946	     15.87583351	    -28.83899498	    -13.57303429	    -12.13348961	     -0.24968715	     19.95195198	   -119.47375488
      0.85000000	   -160.90524292	      9.26862717	      2.13102150	     67.29785919	    -59.94966507	     51.28440094	    -15.35655117	    -33.44139099	     61.27307129	      6.09774542	    -13.65676308	    -28.95651054	    -17.38556290	     -1.73671007	     14.28568554	    -77.87503815
      0.86000000	    -77.85797119	      9.80765820	      3.63003731	     45.26250076	    -57.19715500	    -28.43996811	     -9.26968575	    -11.23273373	     34.98055267	      0.69996381	    -28.23097229	    -31.07239914	    -19.08037758	    -17.93512344	     20.87233543	    -75.55482483
      0.87000000	    118.73838043	     26.69351578	      1.50590563	    102.87057495	      1.50629854	     36.41429138	     -4.13649273	    -14.55436993	     27.69627380	     39.42394257	     19.69067383	     39.48126984	    -25.02210999	    -15.21201706	     28.34370613	    -45.82450104
      0.88000000	    -64.25460052	     27.33940315	     10.95897961	    116.90831757	     72.00396729	    -11.06095409	     -4.69589949	    -20.99353218	      5.09548378	     56.02186203	     -5.38943338	    -36.74036789	     -4.65626621	    -10.92977715	     12.38821316	     35.41395950
      0.89000000	      2.83793640	     34.95101929	     -3.53478718	     29.39428520	     81.07995605	     14.66179943	     -2.72667789	    -26.37639427	    -12.89062500	     18.04163170	      4.02587509	    -33.30210876	    -25.47378349	    -67.83694458	    -32.80368805	     85.88903046
      0.90000000	   -216.48336792	     36.70156097	     -6.08213472	    -51.30218887	     61.96132660	      0.47011462	      9.83928967	      0.01085401	    -45.31527328	     -7.41810369	      5.71692181	    -19.70201492	    -12.08625603	    -10.47782612	     60.27112198	    133.85513306
      0.91000000	    176.33207703	     38.67902374	      2.42811346	   -123.89022827	     45.15689850	    -30.91735840	      9.81236076	     -4.39144230	    -67.89848328	    -22.03059387	    -28.72211456	    -22.42849541	    -43.25854111	    -34.63212585	     41.02072144	    139.90376282
      0.92000000	    -19.82020378	     32.09072113	     -6.91687489	   -165.34814453	     43.37957001	     -3.09235811	     15.66568089	     -9.81984138	    -72.78392029	   -109.81735229	     -8.93342209	     13.13843060	    -51.90222931	     10.46723747	     30.90217972	    136.70152283
      0.93000000	    223.07035828	     11.20946407	      8.60758686	    -89.72366333	     36.39509583	     -4.15953875	    -10.10112953	    -12.60412025	    -49.02990723	   -105.07078552	    -12.29373169	    -19.21997452	    -19.51383209	     32.70785904	     75.86345673	     16.81933022
      0.94000000	     61.24868774	     -7.62801218	     -8.36401081	     35.90495682	     -1.07674527	      0.59521198	     -4.97018051	    -13.19406033	     -7.39358616	    -25.49654198	    -16.44892693	     -1.01218152	    -28.15371704	     38.08110809	     73.43224335	    -30.54360199
      0.95000000	     -2.79089117	    -14.62926483	     14.16951180	    102.07646179	    -49.00023651	     -6.84304714	     -7.09922266	     -5.04654121	     -3.34409332	    -30.38056374	    -36.18820572	     -6.51259708	    -13.23343086	    -11.18523979	     79.22982025	     -4.73405266
      0.96000000	     -0.66490674	    -18.75336075	    -19.46224785	     66.78884888	    -26.96913719	     -9.86216068	     -3.51139450	    -12.33141899	    -12.62801933	     41.02098465	      6.30795527	    -64.16990662	    -19.91957664	     24.62672043	    -24.52495003	     22.34326172
      0.97000000	     -5.36458158	    -20.45862579	     -5.52593231	     23.44084167	    -50.71970367	      7.27637863	     -5.74224854	      0.35751581	    -12.15378666	     40.38201904	    -11.92275906	    157.90802002	    -13.83938026	     32.65645218	    -51.63425827	    -28.60296631
      0.98000000	      8.31518459	    -11.49465179	     46.91794968	     37.92490387	    211.75439453	    -26.11203575	     -0.33078581	     -0.07165450	    -25.06098366	    289.58203125	    -48.49470901	    -20.79354286	     -5.99909592	     25.08866501	    -49.53009033	    -19.90071869
      0.99000000	      0.88674951	      3.26959562	    -14.53523445	    115.99556732	    534.21673584	    -21.56188583	     10.13537502	      1.41190016	    -25.19264793	    -98.45188904	     40.87975693	     58.66072845	      8.33032513	     41.67461395	     25.03704834	      3.18583202
      1.00000000	    -23.09923744	     11.41869736	    -62.24125671	     98.50038147	    110.94364166	      0.79029036	    -10.42486954	     -2.53148031	      8.09745312	    -57.89703369	     20.94620514	    -11.54060268	     28.03763962	   -187.86972046	   -183.13220215	   -171.79196167
      1.01000000	    -18.82280159	      7.75976944	    -18.91603470	     44.36323929	   -475.95230103	     -5.94237852	      0.75485551	     -4.31185818	     11.26161957	      0.81121969	    -11.94738388	    -25.59407616	     19.35017967	    -56.88265228	     55.46102142	     35.68659592
      1.02000000	    -13.21234989	     11.73822975	     23.44806671	    -68.12120056	   -593.85211182	      5.79578781	     -5.31386948	      3.74918246	     14.00855446	     26.82009315	     40.08989334	      5.51528549	     25.80355453	    -36.67596436	    293.79769897	    292.95285034
